<?xml version="1.0" encoding="utf-8"?>
<!-- Generator: Adobe Illustrator 25.3.1, SVG Export Plug-In . SVG Version: 6.00 Build 0)  -->
<svg version="1.1" id="圖層_1" xmlns="http://www.w3.org/2000/svg" xmlns:xlink="http://www.w3.org/1999/xlink" x="0px" y="0px"
	 viewBox="0 0 360 80" width="360px" height="80px" style="enable-background:new 0 0 360 80;" xml:space="preserve">
<style type="text/css">
	.st0{fill:#0054A0;}
	.st1{fill:#FA5869;}
</style>
<g>
	<path class="st0" d="M0.2,53.6c4-3.8,8-7.7,12.3-11.1c4.2-3.5,9-6.5,14-8.7c1.3-0.5,2.5-1,3.8-1.3c1.3-0.4,2.6-0.6,3.9-0.8
		c1.3-0.2,2.6-0.3,3.9-0.3c1.3,0,2.6,0.1,3.9,0.4c1.3,0.3,2.5,0.9,3.5,1.8c1,0.9,1.7,2.1,2.2,3.4c0.4,1.3,0.7,2.6,0.7,4
		c0,1.4,0,2.7-0.2,4.1c-0.3,2.7-0.8,5.4-1.4,8c-0.6,2.6-1.2,5.2-1.8,7.8c-0.6,2.5-1.1,5-1.3,7.5c-0.2,2.4,0,4.6,0.9,6
		c0.5,0.8,1.3,1.3,2.2,1.6c1.1,0.4,2.2,0.6,3.3,0.5c2.5-0.1,5-0.5,7.4-1.2c5-1.5,9.7-4.3,14.3-7.2c2.3-1.5,4.6-3,6.9-4.5
		c2.3-1.5,4.6-3,6.9-4.5c4.6-3,9.6-5.3,14.8-7c1.3-0.4,2.6-0.7,3.9-1c1.3-0.3,2.7-0.4,4-0.5c1.4,0,2.7,0.2,4,0.6
		c1.3,0.4,2.4,1.1,3.4,2c2,1.7,3.3,3.8,4.8,5.5c1.5,1.6,3.2,2.9,5.2,3.8c2.1,0.8,4.4,1.2,6.7,1.1c2.5,0,5-0.3,7.4-0.9
		c2.5-0.6,5-1.4,7.4-2.5c2.4-1.1,4.8-2.4,7.1-3.8c4.6-2.9,9-6.2,13.2-9.8c4.2-3.5,8.3-7.3,12.4-11c8.1-7.5,16.2-15.1,25.2-21.6
		c4.4-3.3,9.2-6.1,14.2-8.4c4.9-2.2,10.1-3.6,15.5-4c2.6-0.2,5.2-0.1,7.7,0.5c2.5,0.5,4.8,1.7,6.7,3.5c1.8,1.8,3.2,4,3.9,6.5
		c0.8,2.5,1.2,5,1.4,7.6c0.2,2.6,0.2,5.2,0.2,7.8c-0.1,2.6-0.2,5.2-0.4,7.8c-0.4,5.2-1,10.4-0.9,15.3c0,2.4,0.3,4.8,0.8,7.1
		c0.5,2.1,1.6,4,3.3,5.4c1.8,1.3,3.9,2,6.1,2c2.4,0.1,4.9-0.1,7.3-0.7c2.5-0.6,4.9-1.5,7.2-2.7c2.4-1.3,4.6-2.7,6.7-4.3
		c4.3-3.4,8.3-7.1,12.2-11.1c7.9-7.8,16.5-15,25.9-20.7c4.7-2.8,9.6-5.2,14.7-7.1c5-1.8,10.1-3.2,15.4-4c0.2,0,0.4,0.1,0.4,0.3
		c0,0,0,0.1,0,0.1c0,0.2-0.2,0.4-0.4,0.5l0,0c-10.5,1.7-20.6,5.5-29.6,11.2c-9.3,5.9-17.8,12.9-25.3,20.9
		c-3.8,4.1-7.9,7.9-12.2,11.5c-2.2,1.8-4.5,3.3-6.9,4.7c-2.4,1.5-5,2.6-7.7,3.4c-2.6,0.7-5.4,1.1-8.1,1.1c-1.4,0-2.7-0.2-4-0.6
		c-1.3-0.4-2.6-1-3.7-1.8c-1.1-0.8-2-1.8-2.7-3c-0.7-1.1-1.3-2.4-1.6-3.7c-0.7-2.6-1.1-5.2-1.1-7.9c0-2.6,0.1-5.3,0.3-7.9
		c0.2-2.6,0.5-5.2,0.8-7.8c0.7-5.1,1.2-10.2,1.3-15.3c0-2.4-0.3-4.9-0.9-7.2c-0.6-2.2-1.7-4.2-3.3-5.9c-1.7-1.6-3.7-2.7-6-3.2
		c-2.4-0.5-4.8-0.7-7.3-0.5c-5.2,0.4-10.3,1.6-15,3.8c-4.9,2.2-9.6,5-13.9,8.2c-8.8,6.4-16.9,13.9-25.1,21.4
		c-4.1,3.7-8.2,7.5-12.4,11c-4.2,3.6-8.6,6.9-13.3,10c-4.6,3-9.6,5.5-14.8,7.3c-2.6,0.8-5.3,1.4-8,1.7c-2.7,0.3-5.4,0.1-8-0.8
		c-1.3-0.4-2.5-1.1-3.5-2c-1-0.8-1.8-1.8-2.6-2.9c-1.2-1.9-2.6-3.8-4.1-5.6c-0.8-0.8-1.7-1.4-2.7-1.8c-1-0.4-2.1-0.7-3.3-0.7
		c-1.2,0-2.4,0-3.7,0.2c-1.3,0.2-2.5,0.4-3.8,0.7c-5.1,1.5-10,3.7-14.5,6.5c-2.3,1.4-4.6,2.9-6.9,4.4c-2.3,1.5-4.6,3-6.9,4.5
		c-4.6,3.1-9.4,5.7-14.5,7.7c-2.5,1-5.2,1.7-7.9,2c-1.4,0.2-2.8,0.2-4.2,0c-2.3-0.2-4.3-1.7-5.1-3.9c-0.3-0.7-0.5-1.4-0.6-2.1
		c-0.2-1.4-0.2-2.9,0-4.3c0.3-2.7,0.8-5.4,1.6-8c1.4-5.2,3.1-10.3,4-15.3c0.5-2.4,0.5-4.8,0-7.1c-0.3-1-0.8-2-1.5-2.8
		c-0.8-0.8-1.7-1.4-2.7-1.8c-2.3-0.7-4.8-1-7.2-0.7c-2.6,0.2-5.1,0.8-7.5,1.9c-2.5,1.1-4.8,2.4-7.1,3.8c-2.3,1.5-4.5,3.1-6.6,4.8
		c-4.3,3.4-8.3,7.3-12.3,11.1c-0.2,0.2-0.4,0.2-0.6,0c0,0,0,0,0,0C-0.1,54,0,53.7,0.2,53.6L0.2,53.6L0.2,53.6z"/>
	<circle class="st1" cx="108.1" cy="25.7" r="8.8"/>
</g>
</svg>
