<svg xmlns="http://www.w3.org/2000/svg" viewBox="0 0 403.23 353.93" width="404" height="354"><defs><style>.cls-1{fill:#fa5869;}.cls-2{fill:#0054a0;}</style></defs><g id="圖層_2" data-name="圖層 2"><g id="bg"><path d="M77.53,157H6.34a1.22,1.22,0,0,1,0-2.44H77.53a1.22,1.22,0,1,1,0,2.44Z"/><path d="M206.35,143H119a1.22,1.22,0,0,1,0-2.44h87.31a1.22,1.22,0,0,1,0,2.44Z"/><path d="M76.31,136H7.56a1.22,1.22,0,1,1,0-2.44H76.31a1.22,1.22,0,0,1,0,2.44Z"/><path d="M82.65,165.78H1.22a1.22,1.22,0,0,1,0-2.44H82.65a1.22,1.22,0,0,1,0,2.44Z"/><path d="M41.94,165.78a1.22,1.22,0,0,1-1.23-1.22V121.73a1.23,1.23,0,0,1,2.45,0v42.83A1.22,1.22,0,0,1,41.94,165.78Z"/><path d="M200,135.87a1.22,1.22,0,0,1-1.22-1.22V132a6,6,0,0,0-6.12-5.86H133.05a6,6,0,0,0-6.11,5.86v2.69a1.23,1.23,0,0,1-2.45,0V132a8.45,8.45,0,0,1,8.56-8.31h59.56a8.45,8.45,0,0,1,8.56,8.31v2.69A1.21,1.21,0,0,1,200,135.87Z"/><path d="M162.83,125.31a1.22,1.22,0,0,1-1.22-1.22v-4.7a1.22,1.22,0,0,1,2.44,0v4.7A1.22,1.22,0,0,1,162.83,125.31Z"/><path d="M206.35,166.11h-8.53a132.45,132.45,0,0,1-37.15-5.19c-4.6-1.26-8.9-2.65-12.77-4.11-6.13-2.32-10.1-7.54-10.1-13.3v-11a1.22,1.22,0,0,1,2.44,0v11c0,4.74,3.35,9.06,8.52,11,3.8,1.44,8,2.8,12.56,4a130.4,130.4,0,0,0,36.5,5.1h8.53a1.22,1.22,0,0,1,0,2.44Z"/><path d="M127.57,166.11H119a1.22,1.22,0,1,1,0-2.44h8.53a130.52,130.52,0,0,0,36.51-5.1c4.53-1.25,8.75-2.61,12.55-4,5.18-2,8.52-6.27,8.52-11v-11a1.22,1.22,0,0,1,2.44,0v11c0,5.76-4,11-10.09,13.3-3.87,1.46-8.17,2.85-12.77,4.11A132.47,132.47,0,0,1,127.57,166.11Z"/><path d="M64.13,148.24H19.74a13.87,13.87,0,1,1,0-27.73H64.13a13.87,13.87,0,1,1,0,27.73ZM19.74,123a11.42,11.42,0,0,0,0,22.84H64.13a11.42,11.42,0,1,0,0-22.84Z"/><path d="M70.3,239.1H65.2c-2.63,0-4.77-1.84-4.77-4.11v-1.67H10.8a1.22,1.22,0,0,1,0-2.44H60.43V212.69H10.8a1.22,1.22,0,0,1,0-2.44H60.43v-1.67c0-2.26,2.14-4.11,4.77-4.11h5.1c2.63,0,4.77,1.85,4.77,4.11s-2.14,4.11-4.77,4.11H62.87v18.19H70.3c2.63,0,4.77,1.84,4.77,4.11S72.93,239.1,70.3,239.1Zm-7.43-5.78V235c0,.9,1.06,1.67,2.33,1.67h5.1c1.26,0,2.32-.77,2.32-1.67s-1.06-1.67-2.32-1.67Zm0-23.07H70.3c1.26,0,2.32-.76,2.32-1.67s-1.06-1.67-2.32-1.67H65.2c-1.27,0-2.33.77-2.33,1.67Z"/><path d="M71.82,244.42H12.05c-6.64,0-12-4.91-12-10.94V210.09c0-6,5.41-10.94,12.05-10.94H71.82c6.64,0,12.05,4.91,12.05,10.94v23.39C83.87,239.51,78.46,244.42,71.82,244.42ZM12.05,201.59c-5.3,0-9.61,3.82-9.61,8.5v23.39c0,4.69,4.31,8.5,9.61,8.5H71.82c5.3,0,9.61-3.81,9.61-8.5V210.09c0-4.68-4.31-8.5-9.61-8.5Z"/><path d="M48,227.47H19a5.68,5.68,0,0,1,0-11.36H48a5.68,5.68,0,1,1,0,11.36Zm-29-8.92A3.24,3.24,0,1,0,19,225H48a3.24,3.24,0,1,0,0-6.47Z"/><path d="M205.44,230.48H142.69a1.22,1.22,0,0,1,0-2.44h62.75a1.22,1.22,0,0,1,0,2.44Z"/><path d="M174.07,244.42a1.22,1.22,0,0,1-1.23-1.22V229.8a1.23,1.23,0,1,1,2.45,0v13.4A1.22,1.22,0,0,1,174.07,244.42Z"/><path d="M184.88,221.8H163.25a1.22,1.22,0,1,1,0-2.44h21.63a1.22,1.22,0,1,1,0,2.44Z"/><path d="M151.17,221.93a1.22,1.22,0,0,1-.88-.38l-8.35-8.8a1.22,1.22,0,1,1,1.78-1.68l8.34,8.79a1.23,1.23,0,0,1-.05,1.73A1.17,1.17,0,0,1,151.17,221.93Z"/><path d="M134.12,228.92a1.22,1.22,0,0,1-1.23-1.22v-.8c0-2.14-2.17-3.89-4.84-3.89a1.22,1.22,0,0,1,0-2.44c2.67,0,4.84-1.75,4.84-3.9v-.8a1.23,1.23,0,0,1,2.45,0v.8a6.13,6.13,0,0,1-3,5.12,6.12,6.12,0,0,1,3,5.11v.8A1.22,1.22,0,0,1,134.12,228.92Z"/><path d="M128.72,244.42a1.22,1.22,0,1,1,0-2.44,4.11,4.11,0,0,0,4.17-4V227.7a1.23,1.23,0,0,1,2.45,0V238A6.55,6.55,0,0,1,128.72,244.42Z"/><path d="M122,244.42a1.22,1.22,0,0,1-1.22-1.22V200.37a1.22,1.22,0,0,1,1.22-1.22h6.74a6.55,6.55,0,0,1,6.62,6.48v10.24a1.23,1.23,0,0,1-2.45,0V205.63a4.11,4.11,0,0,0-4.17-4H123.2V243.2A1.21,1.21,0,0,1,122,244.42Z"/><path d="M144,244.42h-1.31a1.22,1.22,0,0,1,0-2.44H144c8.63,0,15.66-5.7,15.66-12.7a1.22,1.22,0,0,1,2.44,0C162.1,237.63,154,244.42,144,244.42Z"/><path d="M205.44,244.4h-1.3c-10,0-18.11-6.79-18.11-15.14a1.22,1.22,0,0,1,2.44,0c0,7,7,12.7,15.67,12.7h1.3a1.22,1.22,0,0,1,0,2.44Z"/><path d="M142.69,224.24a1.22,1.22,0,1,1,0-2.44c6.25,0,8.61-1.83,12.54-5.47l-6.11-6.45a5.62,5.62,0,0,1-1.2-6.23,7.15,7.15,0,0,1,6.71-4.07h11.9a4.37,4.37,0,0,1,4.18,2.65,3.64,3.64,0,0,1-1,4.05l-12,11.08C153.1,221.65,150.32,224.24,142.69,224.24ZM154.63,202a4.72,4.72,0,0,0-4.47,2.6,3.2,3.2,0,0,0,.73,3.58l6.13,6.46,11-10.18a1.18,1.18,0,0,0,.38-1.36,1.93,1.93,0,0,0-1.9-1.1Z"/><path d="M205.44,224.24c-7.63,0-10.41-2.59-15-6.88l-12-11.09a3.62,3.62,0,0,1-1-4,4.37,4.37,0,0,1,4.17-2.65h11.91a7.14,7.14,0,0,1,6.7,4.07,5.62,5.62,0,0,1-1.2,6.23l-6.11,6.45c3.94,3.64,6.29,5.47,12.54,5.47a1.22,1.22,0,1,1,0,2.44ZM181.6,202a1.94,1.94,0,0,0-1.9,1.1,1.18,1.18,0,0,0,.38,1.36l11,10.18,6.13-6.46a3.2,3.2,0,0,0,.73-3.58,4.72,4.72,0,0,0-4.46-2.6Z"/><path d="M30.14,309.9H11.53a8.26,8.26,0,0,1-8.26-8.26v-5.17a1.22,1.22,0,0,1,2.44,0v5.17a5.83,5.83,0,0,0,5.82,5.82H30.14a1.22,1.22,0,1,1,0,2.44Z"/><path d="M72.74,309.9H59.3a7.33,7.33,0,0,1,0-14.65H72.74a7.33,7.33,0,1,1,0,14.65ZM59.3,297.69a4.89,4.89,0,0,0,0,9.77H72.74a4.89,4.89,0,0,0,0-9.77Z"/><path d="M114.88,309.9a1.21,1.21,0,0,1-1.22-1.22v-4.61a6.38,6.38,0,0,0-6.38-6.38H96.83a6.38,6.38,0,0,0-6.38,6.38v4.61a1.22,1.22,0,1,1-2.44,0v-4.61a8.83,8.83,0,0,1,8.82-8.82h10.45a8.83,8.83,0,0,1,8.82,8.82v4.61A1.22,1.22,0,0,1,114.88,309.9Z"/><path d="M41.94,309.9a1.22,1.22,0,0,1-1.23-1.22v-6.1a1.23,1.23,0,1,1,2.45,0v6.1A1.22,1.22,0,0,1,41.94,309.9Z"/><circle class="cls-1" cx="41.94" cy="286.29" r="3.25"/><path d="M402,353.93H383.4a8.28,8.28,0,0,1-8.26-8.26V340.5a1.23,1.23,0,1,1,2.45,0v5.17a5.82,5.82,0,0,0,5.81,5.82H402a1.22,1.22,0,1,1,0,2.44Z"/><path d="M4.49,353.93a1.22,1.22,0,0,1-1.22-1.22V340.5a1.22,1.22,0,1,1,2.44,0v12.21A1.22,1.22,0,0,1,4.49,353.93Z"/><path d="M257.88,353.93a1.22,1.22,0,0,1-1.22-1.22V340.5a1.22,1.22,0,1,1,2.44,0v12.21A1.22,1.22,0,0,1,257.88,353.93Z"/><path d="M287.81,353.93H274.37a7.33,7.33,0,0,1,0-14.66h13.44a7.33,7.33,0,0,1,0,14.66Zm-13.44-12.21a4.89,4.89,0,0,0,0,9.77h13.44a4.89,4.89,0,0,0,0-9.77Z"/><path d="M40.52,353.93a1.22,1.22,0,0,1-1.22-1.22V348.1a6.38,6.38,0,0,0-6.38-6.38H22.48a6.38,6.38,0,0,0-6.38,6.38v4.61a1.23,1.23,0,0,1-2.45,0V348.1a8.84,8.84,0,0,1,8.83-8.83H32.92a8.83,8.83,0,0,1,8.82,8.83v4.61A1.22,1.22,0,0,1,40.52,353.93Z"/><path d="M178.57,353.93a1.22,1.22,0,0,1-1.22-1.22V348.1a6.38,6.38,0,0,0-6.38-6.38H160.52a6.39,6.39,0,0,0-6.38,6.38v4.61a1.22,1.22,0,0,1-2.44,0V348.1a8.84,8.84,0,0,1,8.82-8.83H171a8.84,8.84,0,0,1,8.82,8.83v4.61A1.22,1.22,0,0,1,178.57,353.93Z"/><path d="M329.94,353.93a1.22,1.22,0,0,1-1.22-1.22V348.1a6.38,6.38,0,0,0-6.38-6.38H311.9a6.38,6.38,0,0,0-6.38,6.38v4.61a1.22,1.22,0,0,1-2.44,0V348.1a8.83,8.83,0,0,1,8.82-8.83h10.44a8.84,8.84,0,0,1,8.83,8.83v4.61A1.23,1.23,0,0,1,329.94,353.93Z"/><path d="M60.43,353.93a1.22,1.22,0,0,1-1.22-1.22V340.5a1.22,1.22,0,1,1,2.44,0v12.21A1.22,1.22,0,0,1,60.43,353.93Z"/><path d="M73.41,341.72h-26a1.23,1.23,0,0,1,0-2.45h26a1.23,1.23,0,0,1,0,2.45Z"/><path d="M234.51,353.93a1.22,1.22,0,0,1-1.22-1.22V340.5a1.22,1.22,0,1,1,2.44,0v12.21A1.22,1.22,0,0,1,234.51,353.93Z"/><path d="M247.49,341.72h-26a1.23,1.23,0,0,1,0-2.45h26a1.23,1.23,0,0,1,0,2.45Z"/><path d="M106.3,353.93H86.44a7.33,7.33,0,1,1,0-14.66H106.3a1.23,1.23,0,0,1,0,2.45H86.44a4.89,4.89,0,0,0,0,9.77H106.3a1.22,1.22,0,1,1,0,2.44Z"/><path d="M103,347.82H80.34a1.22,1.22,0,1,1,0-2.44H103a1.22,1.22,0,0,1,0,2.44Z"/><path d="M116.69,353.93a1.23,1.23,0,0,1-1.23-1.22v-9.16a4.28,4.28,0,0,1,4.28-4.28h19.74a4.28,4.28,0,1,1,0,8.55H117.91v4.89A1.22,1.22,0,0,1,116.69,353.93Zm1.22-8.55h21.57a1.83,1.83,0,1,0,0-3.66H119.74a1.83,1.83,0,0,0-1.83,1.83Z"/><path d="M142.54,353.93a1.28,1.28,0,0,1-.72-.23l-8.4-6.11a1.22,1.22,0,1,1,1.44-2l8.39,6.1a1.22,1.22,0,0,1,.27,1.71A1.2,1.2,0,0,1,142.54,353.93Z"/><path d="M214.6,353.93a1.22,1.22,0,0,1-1.22-1.22V348.1a6.38,6.38,0,0,0-6.38-6.38H196.56a6.38,6.38,0,0,0-6.38,6.38v4.61a1.23,1.23,0,0,1-2.45,0V348.1a8.84,8.84,0,0,1,8.83-8.83H207a8.83,8.83,0,0,1,8.82,8.83v4.61A1.22,1.22,0,0,1,214.6,353.93Z"/><path d="M213.75,349.66H189.11a1.23,1.23,0,1,1,0-2.45h24.64a1.23,1.23,0,0,1,0,2.45Z"/><path d="M366,353.93a1.22,1.22,0,0,1-1.22-1.22V348.1a6.39,6.39,0,0,0-6.38-6.38H347.93a6.38,6.38,0,0,0-6.38,6.38v4.61a1.22,1.22,0,0,1-2.44,0V348.1a8.84,8.84,0,0,1,8.82-8.83h10.45a8.84,8.84,0,0,1,8.82,8.83v4.61A1.22,1.22,0,0,1,366,353.93Z"/><path d="M365.12,349.66H340.48a1.23,1.23,0,0,1,0-2.45h24.64a1.23,1.23,0,1,1,0,2.45Z"/><path class="cls-2" d="M.17,52.29c4-3.8,8-7.66,12.33-11.12a59,59,0,0,1,14-8.7,37.78,37.78,0,0,1,3.83-1.34,31.85,31.85,0,0,1,3.9-.82A27.25,27.25,0,0,1,38.13,30a14.63,14.63,0,0,1,3.9.42,8.39,8.39,0,0,1,3.49,1.8,7.91,7.91,0,0,1,2.17,3.35,13.58,13.58,0,0,1,.72,4,27.47,27.47,0,0,1-.16,4.06,67.93,67.93,0,0,1-1.41,8c-.57,2.62-1.24,5.2-1.83,7.75a60.37,60.37,0,0,0-1.34,7.49c-.24,2.4,0,4.64.94,6a4.39,4.39,0,0,0,2.19,1.64,9,9,0,0,0,3.33.51,26.61,26.61,0,0,0,7.42-1.23c5-1.53,9.72-4.27,14.31-7.19,2.3-1.46,4.58-3,6.86-4.51s4.58-3,6.92-4.48a61.9,61.9,0,0,1,14.81-7,38.15,38.15,0,0,1,3.93-1,24.13,24.13,0,0,1,4-.46,11.83,11.83,0,0,1,4,.6,10.25,10.25,0,0,1,3.4,2c2,1.7,3.27,3.81,4.82,5.47A15.18,15.18,0,0,0,125.84,61a17.49,17.49,0,0,0,6.71,1.11,33.85,33.85,0,0,0,7.41-.89,40.26,40.26,0,0,0,7.39-2.51,58.32,58.32,0,0,0,7.06-3.84,114.12,114.12,0,0,0,13.16-9.75c4.22-3.53,8.29-7.26,12.35-11,8.13-7.47,16.2-15.13,25.2-21.63A79.09,79.09,0,0,1,219.34,4.1a46.44,46.44,0,0,1,15.51-4,26.7,26.7,0,0,1,7.74.45A14.06,14.06,0,0,1,249.28,4a15,15,0,0,1,3.88,6.48,31.42,31.42,0,0,1,1.37,7.61,70.29,70.29,0,0,1,.15,7.82c-.08,2.61-.24,5.22-.44,7.81-.41,5.19-1,10.35-.92,15.3a29.36,29.36,0,0,0,.83,7.08,9.81,9.81,0,0,0,3.25,5.35,10.78,10.78,0,0,0,6.09,2,29.87,29.87,0,0,0,7.28-.66,28.55,28.55,0,0,0,7.15-2.68,49.54,49.54,0,0,0,6.72-4.34,128.64,128.64,0,0,0,12.15-11.06c7.93-7.77,16.48-15,25.92-20.68a91.4,91.4,0,0,1,14.66-7.14,79,79,0,0,1,15.37-4,.34.34,0,0,1,.41.35.48.48,0,0,1-.41.47h0a78.15,78.15,0,0,0-29.6,11.23,135.1,135.1,0,0,0-25.33,20.85,128.38,128.38,0,0,1-12.15,11.48A54.41,54.41,0,0,1,278.74,62,32,32,0,0,1,271,65.35a30.11,30.11,0,0,1-8.08,1.07,16.17,16.17,0,0,1-4-.55,11.27,11.27,0,0,1-3.66-1.76,10.62,10.62,0,0,1-2.74-3,14.86,14.86,0,0,1-1.63-3.67,29.73,29.73,0,0,1-1.08-7.89,77.06,77.06,0,0,1,.32-7.9c.21-2.62.5-5.23.8-7.82a124.32,124.32,0,0,0,1.25-15.33,30,30,0,0,0-.93-7.23A13.66,13.66,0,0,0,248,5.36a12.37,12.37,0,0,0-6-3.17,25,25,0,0,0-7.27-.48,43.79,43.79,0,0,0-15,3.77,77.49,77.49,0,0,0-13.93,8.15C197,20,188.86,27.56,180.69,35c-4.09,3.72-8.19,7.45-12.42,11A134.22,134.22,0,0,1,155,56a66.22,66.22,0,0,1-14.79,7.28,39.92,39.92,0,0,1-8,1.7,18.67,18.67,0,0,1-8-.76,11,11,0,0,1-3.49-2,16.23,16.23,0,0,1-2.59-2.86A50.89,50.89,0,0,0,114,53.8,8.23,8.23,0,0,0,111.32,52a9.88,9.88,0,0,0-3.27-.71,21.83,21.83,0,0,0-3.66.18,33,33,0,0,0-3.75.71,56.56,56.56,0,0,0-14.49,6.5c-2.34,1.38-4.63,2.86-6.92,4.37s-4.56,3-6.87,4.52A80,80,0,0,1,57.84,75.3a33.62,33.62,0,0,1-7.9,2,15.37,15.37,0,0,1-4.18,0,6.22,6.22,0,0,1-5.14-3.87A8.68,8.68,0,0,1,40,71.3,17.39,17.39,0,0,1,40,67,49.35,49.35,0,0,1,41.59,59c1.36-5.22,3.13-10.29,3.95-15.3a17.8,17.8,0,0,0,0-7.13,6.63,6.63,0,0,0-1.48-2.8A6.91,6.91,0,0,0,41.35,32a16.78,16.78,0,0,0-7.17-.69,23.36,23.36,0,0,0-7.52,1.85A45.43,45.43,0,0,0,19.57,37,75.5,75.5,0,0,0,13,41.78C8.67,45.22,4.7,49.06.7,52.89a.42.42,0,0,1-.6,0,.46.46,0,0,1,.06-.62h0Z"/><circle class="cls-1" cx="108.12" cy="24.41" r="8.81"/></g></g></svg>