<svg xmlns="http://www.w3.org/2000/svg" viewBox="0 0 353.21 77.46"><defs><style>.cls-1{fill:#0054A0;}.cls-2{fill:#fa5869;}</style></defs><g id="圖層_2" data-name="圖層 2"><g id="圖層_1-2" data-name="圖層 1"><path class="cls-1" d="M.16,52.3c4-3.8,8-7.66,12.34-11.12a58.89,58.89,0,0,1,14-8.7,37,37,0,0,1,3.83-1.34,30.36,30.36,0,0,1,3.9-.82,26.75,26.75,0,0,1,3.9-.31,14.23,14.23,0,0,1,3.9.42,8.27,8.27,0,0,1,3.49,1.8,7.85,7.85,0,0,1,2.17,3.35,13.64,13.64,0,0,1,.72,4,26.22,26.22,0,0,1-.16,4.06,67.63,67.63,0,0,1-1.41,8c-.57,2.62-1.24,5.2-1.83,7.75a61.34,61.34,0,0,0-1.34,7.5c-.24,2.4,0,4.64.94,6a4.47,4.47,0,0,0,2.19,1.64,9,9,0,0,0,3.33.51,26.68,26.68,0,0,0,7.42-1.23c5-1.53,9.73-4.27,14.32-7.19,2.3-1.46,4.58-3,6.86-4.52s4.58-3,6.92-4.48a62.17,62.17,0,0,1,14.81-7c1.29-.4,2.61-.73,3.93-1a24.51,24.51,0,0,1,4-.46,11.86,11.86,0,0,1,4,.6,10.35,10.35,0,0,1,3.4,2c2,1.7,3.27,3.81,4.82,5.47A15,15,0,0,0,125.86,61a17.25,17.25,0,0,0,6.71,1.11,33.59,33.59,0,0,0,7.41-.89,39.25,39.25,0,0,0,7.39-2.51,57.35,57.35,0,0,0,7.06-3.84,114,114,0,0,0,13.17-9.75c4.22-3.53,8.29-7.26,12.35-11,8.13-7.47,16.2-15.13,25.2-21.64A80.09,80.09,0,0,1,219.38,4.1a46.62,46.62,0,0,1,15.51-4,27.16,27.16,0,0,1,7.74.45A14.1,14.1,0,0,1,249.32,4a15,15,0,0,1,3.88,6.48,31.36,31.36,0,0,1,1.37,7.62,68,68,0,0,1,.15,7.82c-.08,2.61-.24,5.22-.44,7.81-.41,5.19-1,10.35-.92,15.3a29.54,29.54,0,0,0,.83,7.08,9.86,9.86,0,0,0,3.25,5.35,10.76,10.76,0,0,0,6.1,2,29.7,29.7,0,0,0,7.28-.66A28.32,28.32,0,0,0,278,60.12a49.05,49.05,0,0,0,6.72-4.34,128.51,128.51,0,0,0,12.15-11.06A142.85,142.85,0,0,1,322.77,24a89.85,89.85,0,0,1,14.66-7.14,79.37,79.37,0,0,1,15.37-4,.35.35,0,0,1,.41.27v.09a.48.48,0,0,1-.41.47h0A78,78,0,0,0,323.2,25,135.21,135.21,0,0,0,297.86,45.8a128,128,0,0,1-12.15,11.48A53.2,53.2,0,0,1,278.79,62a32.24,32.24,0,0,1-7.74,3.36A30.3,30.3,0,0,1,263,66.44a16.43,16.43,0,0,1-4-.55,11.47,11.47,0,0,1-3.66-1.76,10.79,10.79,0,0,1-2.74-3,15.11,15.11,0,0,1-1.63-3.67,30,30,0,0,1-1.08-7.89,77.17,77.17,0,0,1,.32-7.9c.21-2.62.5-5.23.8-7.82a123,123,0,0,0,1.25-15.33,29.52,29.52,0,0,0-.93-7.24A13.66,13.66,0,0,0,248,5.36a12.4,12.4,0,0,0-6-3.17,25.37,25.37,0,0,0-7.27-.48,44,44,0,0,0-15,3.77,77.51,77.51,0,0,0-13.94,8.16C197,20,188.89,27.57,180.72,35c-4.09,3.72-8.19,7.45-12.42,11A132.87,132.87,0,0,1,155,56a65.6,65.6,0,0,1-14.79,7.28,40.43,40.43,0,0,1-8,1.71,18.69,18.69,0,0,1-8-.76,11,11,0,0,1-3.49-2,15.3,15.3,0,0,1-2.59-2.86A52,52,0,0,0,114,53.81a8.37,8.37,0,0,0-2.68-1.8,10,10,0,0,0-3.28-.71,22.44,22.44,0,0,0-3.66.18,34.4,34.4,0,0,0-3.75.71,57,57,0,0,0-14.49,6.5c-2.34,1.38-4.63,2.86-6.92,4.37s-4.56,3-6.87,4.53a80,80,0,0,1-14.53,7.73,34.05,34.05,0,0,1-7.9,2,15.4,15.4,0,0,1-4.18,0,6.24,6.24,0,0,1-5.14-3.87A8.82,8.82,0,0,1,40,71.32,17.19,17.19,0,0,1,40,67a49.58,49.58,0,0,1,1.59-8c1.36-5.22,3.13-10.29,3.95-15.3a17.83,17.83,0,0,0,0-7.13,6.65,6.65,0,0,0-1.48-2.8A6.9,6.9,0,0,0,41.35,32a16.75,16.75,0,0,0-7.17-.69,23.31,23.31,0,0,0-7.52,1.85A45.35,45.35,0,0,0,19.57,37,73.41,73.41,0,0,0,13,41.79C8.66,45.23,4.69,49.07.69,52.9a.41.41,0,0,1-.59,0h0a.46.46,0,0,1,.06-.62h0Z"/><circle class="cls-2" cx="108.13" cy="24.42" r="8.81"/></g></g></svg>