<?xml version="1.0" encoding="utf-8"?>
<!-- Generator: Adobe Illustrator 25.3.1, SVG Export Plug-In . SVG Version: 6.00 Build 0)  -->
<svg version="1.1" id="圖層_1" xmlns="http://www.w3.org/2000/svg" xmlns:xlink="http://www.w3.org/1999/xlink" x="0px" y="0px"
	 viewBox="0 0 480 60" width="480px" height="60px" style="enable-background:new 0 0 480 60;" xml:space="preserve">
<g>
	<g>
		<path d="M220.3,30.9h-87.4c-0.7,0-1.2-0.5-1.2-1.2s0.5-1.2,1.2-1.2h87.3c0.7,0,1.2,0.5,1.2,1.2S220.9,30.9,220.3,30.9L220.3,30.9z
			"/>
		<path d="M214,23.7c-0.7,0-1.2-0.5-1.2-1.2l0,0v-2.7c-0.1-3.3-2.8-5.9-6.1-5.9H147c-3.3-0.1-6,2.6-6.1,5.9v2.7
			c-0.1,0.7-0.7,1.2-1.3,1.1c-0.6-0.1-1.1-0.5-1.1-1.1v-2.7c0.1-4.7,3.9-8.4,8.6-8.3h59.6c4.7-0.1,8.5,3.7,8.6,8.3v2.7
			C215.1,23.2,214.6,23.7,214,23.7z"/>
		<path d="M176.8,13.2c-0.7,0-1.2-0.5-1.2-1.2l0,0V7.2c0-0.7,0.5-1.2,1.2-1.2s1.2,0.5,1.2,1.2v4.7C178,12.6,177.5,13.2,176.8,13.2
			L176.8,13.2z"/>
		<path d="M220.3,54h-8.5c-12.6,0-25.1-1.7-37.2-5.2c-4.6-1.3-8.9-2.7-12.8-4.1c-6.1-2.3-10.1-7.5-10.1-13.3v-11
			c0-0.7,0.5-1.2,1.2-1.2c0.7,0,1.2,0.5,1.2,1.2v11c0,4.7,3.4,9.1,8.5,11c3.8,1.4,8,2.8,12.6,4c11.9,3.4,24.2,5.1,36.5,5.1h8.5
			c0.7,0,1.2,0.5,1.2,1.2S221,53.9,220.3,54L220.3,54z"/>
		<path d="M141.5,54h-8.6c-0.7,0-1.2-0.5-1.2-1.2c0-0.7,0.5-1.2,1.2-1.2h8.5c12.4,0,24.6-1.7,36.5-5.1c4.5-1.3,8.8-2.6,12.6-4
			c5.2-2,8.5-6.3,8.5-11v-11c0-0.7,0.5-1.2,1.2-1.2s1.2,0.5,1.2,1.2v11c0,5.8-4,11-10.1,13.3c-3.9,1.5-8.2,2.9-12.8,4.1
			C166.6,52.3,154.1,54,141.5,54z"/>
	</g>
	<g>
		<path d="M86.5,44.9H15.3c-0.7,0-1.2-0.5-1.2-1.2s0.5-1.2,1.2-1.2h71.2c0.7,0,1.2,0.5,1.2,1.2S87.2,44.9,86.5,44.9L86.5,44.9z"/>
		<path d="M85.3,23.9H16.5c-0.7,0-1.2-0.5-1.2-1.2s0.5-1.2,1.2-1.2l0,0h68.8c0.7,0,1.2,0.5,1.2,1.2S85.9,23.9,85.3,23.9z"/>
		<path d="M91.6,53.6H10.2c-0.7,0-1.2-0.5-1.2-1.2c0-0.7,0.5-1.2,1.2-1.2h81.4c0.7,0,1.2,0.5,1.2,1.2C92.8,53.1,92.3,53.6,91.6,53.6
			z"/>
		<path d="M50.9,53.6c-0.7,0-1.2-0.5-1.2-1.2c0,0,0,0,0,0V9.6c0.1-0.7,0.7-1.2,1.3-1.1c0.6,0.1,1.1,0.5,1.1,1.1v42.8
			C52.1,53.1,51.6,53.6,50.9,53.6C50.9,53.6,50.9,53.6,50.9,53.6z"/>
		<path d="M73.1,36.1H28.7c-7.7,0.2-14-5.8-14.2-13.5s5.8-14,13.5-14.2c0.2,0,0.5,0,0.7,0h44.4c7.7-0.2,14,5.8,14.2,13.5
			s-5.8,14-13.5,14.2C73.6,36.1,73.3,36.1,73.1,36.1z M28.7,10.9c-6.3,0-11.4,5.1-11.4,11.4c0,6.3,5.1,11.4,11.4,11.4h44.4
			c6.3,0,11.4-5.1,11.4-11.4c0-6.3-5.1-11.4-11.4-11.4c0,0,0,0,0,0H28.7z"/>
	</g>
	<g>
		<path d="M330.7,48.7h-5.1c-2.6,0-4.8-1.8-4.8-4.1v-1.7h-49.6c-0.7,0-1.2-0.5-1.2-1.2s0.5-1.2,1.2-1.2h49.6V22.2h-49.6
			c-0.7,0-1.2-0.5-1.2-1.2s0.5-1.2,1.2-1.2h49.6v-1.7c0-2.3,2.1-4.1,4.8-4.1h5.1c2.6,0,4.8,1.9,4.8,4.1s-2.1,4.1-4.8,4.1h-7.4v18.2
			h7.4c2.6,0,4.8,1.8,4.8,4.1S333.3,48.7,330.7,48.7z M323.3,42.9v1.7c0,0.9,1.1,1.7,2.3,1.7h5.1c1.3,0,2.3-0.8,2.3-1.7
			c0-0.9-1.1-1.7-2.3-1.7L323.3,42.9z M323.3,19.8h7.4c1.3,0,2.3-0.8,2.3-1.7c0-0.9-1.1-1.7-2.3-1.7h-5.1c-1.3,0-2.3,0.8-2.3,1.7
			L323.3,19.8z"/>
		<path d="M332.2,54h-59.8c-6.6,0-12-4.9-12-10.9V19.6c0-6,5.4-10.9,12.1-10.9h59.7c6.6,0,12.1,4.9,12.1,10.9V43
			C344.3,49.1,338.9,54,332.2,54z M272.4,11.1c-5.3,0-9.6,3.8-9.6,8.5V43c0,4.7,4.3,8.5,9.6,8.5h59.8c5.3,0,9.6-3.8,9.6-8.5V19.6
			c0-4.7-4.3-8.5-9.6-8.5H272.4z"/>
		<path d="M308.4,37h-29c-3.1,0-5.7-2.5-5.7-5.7c0-3.1,2.5-5.7,5.7-5.7h29c3.1,0,5.7,2.5,5.7,5.7C314.1,34.5,311.5,37,308.4,37z
			 M279.4,28.1c-1.8-0.2-3.4,1.1-3.5,2.9c-0.2,1.8,1.1,3.4,2.9,3.5c0.2,0,0.4,0,0.6,0h29c1.8,0.1,3.3-1.3,3.4-3.1
			c0.1-1.8-1.3-3.3-3.1-3.4c-0.1,0-0.2,0-0.4,0L279.4,28.1z"/>
	</g>
	<g>
		<path d="M469.8,40h-62.8c-0.7,0-1.2-0.5-1.2-1.2s0.5-1.2,1.2-1.2h62.8c0.7,0,1.2,0.5,1.2,1.2S470.5,40,469.8,40L469.8,40z"/>
		<path d="M438.4,54c-0.7,0-1.2-0.5-1.2-1.2c0,0,0,0,0,0V39.4c-0.1-0.7,0.4-1.3,1.1-1.3c0.7-0.1,1.3,0.4,1.3,1.1c0,0.1,0,0.1,0,0.2
			v13.4C439.7,53.4,439.1,54,438.4,54L438.4,54z"/>
		<path d="M449.3,31.4h-21.6c-0.7,0-1.2-0.5-1.2-1.2s0.5-1.2,1.2-1.2h21.6c0.7,0,1.2,0.5,1.2,1.2S449.9,31.4,449.3,31.4z"/>
		<path d="M415.5,31.5c-0.3,0-0.7-0.1-0.9-0.4l-8.4-8.8c-0.5-0.5-0.4-1.3,0.1-1.7c0.5-0.5,1.3-0.4,1.7,0.1l8.3,8.8
			c0.5,0.5,0.4,1.3-0.1,1.7C416.2,31.4,415.9,31.5,415.5,31.5z"/>
		<path d="M398.5,38.5c-0.7,0-1.2-0.5-1.2-1.2c0,0,0,0,0,0v-0.8c0-2.1-2.2-3.9-4.8-3.9c-0.7,0-1.2-0.5-1.2-1.2
			c0-0.7,0.5-1.2,1.2-1.2c2.7,0,4.8-1.8,4.8-3.9v-0.8c0.1-0.7,0.7-1.2,1.3-1.1c0.6,0.1,1.1,0.5,1.1,1.1v0.8c-0.1,2.1-1.2,4-3,5.1
			c1.8,1.1,2.9,3,3,5.1v0.8C399.7,37.9,399.2,38.5,398.5,38.5L398.5,38.5z"/>
		<path d="M393.1,54c-0.7,0-1.2-0.5-1.2-1.2c0-0.7,0.5-1.2,1.2-1.2c2.3,0,4.1-1.8,4.2-4V37.3c0.1-0.7,0.7-1.2,1.3-1.1
			c0.6,0.1,1.1,0.5,1.1,1.1v10.3C399.6,51.2,396.7,54,393.1,54z"/>
		<path d="M386.4,54c-0.7,0-1.2-0.5-1.2-1.2l0,0V9.9c0-0.7,0.5-1.2,1.2-1.2l0,0h6.7c3.6,0,6.6,2.9,6.6,6.5c0,0,0,0,0,0v10.2
			c-0.1,0.7-0.7,1.2-1.3,1.1c-0.6-0.1-1.1-0.5-1.1-1.1V15.2c-0.1-2.3-1.9-4-4.2-4h-5.5v41.6C387.6,53.4,387,54,386.4,54
			C386.4,54,386.4,54,386.4,54z"/>
		<path d="M408.4,54h-1.3c-0.7,0-1.2-0.5-1.2-1.2c0-0.7,0.5-1.2,1.2-1.2h1.3c8.6,0,15.7-5.7,15.7-12.7c0-0.7,0.5-1.2,1.2-1.2
			s1.2,0.5,1.2,1.2C426.5,47.2,418.4,54,408.4,54z"/>
		<path d="M469.8,54h-1.3c-10,0-18.1-6.8-18.1-15.1c0-0.7,0.5-1.2,1.2-1.2c0.7,0,1.2,0.5,1.2,1.2c0,7,7,12.7,15.7,12.7h1.3
			c0.7,0,1.2,0.5,1.2,1.2C471,53.4,470.5,54,469.8,54L469.8,54z"/>
		<path d="M407.1,33.8c-0.7,0-1.2-0.5-1.2-1.2c0-0.7,0.5-1.2,1.2-1.2c6.3,0,8.6-1.8,12.5-5.5l-6.1-6.5c-1.6-1.6-2.1-4.1-1.2-6.2
			c1.2-2.6,3.9-4.2,6.7-4.1h11.9c1.8-0.1,3.5,1,4.2,2.7c0.6,1.4,0.2,3-1,4.1l-12,11.1C417.5,31.2,414.7,33.8,407.1,33.8z M419,11.5
			c-1.9-0.1-3.6,0.9-4.5,2.6c-0.5,1.2-0.2,2.7,0.7,3.6l6.1,6.5l11-10.2c0.4-0.3,0.6-0.9,0.4-1.4c-0.3-0.7-1.1-1.2-1.9-1.1L419,11.5z
			"/>
		<path d="M469.8,33.8c-7.6,0-10.4-2.6-15-6.9l-12-11.1c-1.1-1-1.5-2.6-1-4c0.7-1.7,2.4-2.7,4.2-2.7h11.9c2.8-0.1,5.5,1.5,6.7,4.1
			c0.9,2.1,0.4,4.6-1.2,6.2l-6.1,6.5c3.9,3.6,6.3,5.5,12.5,5.5c0.7,0,1.2,0.5,1.2,1.2C471.1,33.3,470.5,33.8,469.8,33.8L469.8,33.8
			L469.8,33.8z M446,11.5c-0.8-0.1-1.6,0.4-1.9,1.1c-0.2,0.5,0,1,0.4,1.4l11,10.2l6.1-6.5c1-0.9,1.3-2.4,0.7-3.6
			c-0.8-1.7-2.6-2.7-4.5-2.6H446z"/>
	</g>
</g>
</svg>
