<?xml version="1.0" encoding="utf-8"?>
<!-- Generator: Adobe Illustrator 27.8.1, SVG Export Plug-In . SVG Version: 6.00 Build 0)  -->
<svg xmlns="http://www.w3.org/2000/svg" xmlns:xlink="http://www.w3.org/1999/xlink" x="0px" y="0px"
	 viewBox="0 0 32 32" width="32px" height="32px" style="enable-background:new 0 0 32 32;" xml:space="preserve">
<style type="text/css">
	.st0{fill:#FAA5B9;}
</style>
<g>
	<path class="st0" d="M29,11.2l-11.7-10c0,0,0,0,0,0c0,0-0.1-0.1-0.1-0.1c0,0-0.1-0.1-0.1-0.1c0,0-0.1,0-0.1-0.1c0,0-0.1,0-0.1-0.1
		c0,0-0.1,0-0.1-0.1c0,0-0.1,0-0.1,0c0,0-0.1,0-0.1,0c-0.1,0-0.1,0-0.1,0c0,0-0.1,0-0.1,0c0,0-0.1,0-0.1,0c0,0,0,0-0.1,0
		s-0.1,0-0.1,0c0,0-0.1,0-0.1,0s-0.1,0-0.1,0c-0.1,0-0.1,0-0.1,0c0,0-0.1,0-0.1,0c0,0-0.1,0-0.1,0c-0.1,0-0.1,0-0.1,0.1
		c0,0-0.1,0-0.1,0C15,1,15,1,15,1c0,0-0.1,0.1-0.1,0.1c0,0-0.1,0-0.1,0.1c0,0,0,0,0,0L3,11.2c-0.8,0.7-0.9,2-0.2,2.8
		c0.4,0.5,1,0.7,1.5,0.7c0.5,0,0.9-0.2,1.3-0.5L14,7v22.3c0,1.1,0.9,2,2,2c1.1,0,2-0.9,2-2V7l8.4,7.2c0.4,0.3,0.8,0.5,1.3,0.5
		c0.6,0,1.1-0.2,1.5-0.7C29.9,13.2,29.8,11.9,29,11.2L29,11.2z"/>
</g>
</svg>
